Coordinates
version=1
nRows=65
nColumns=12
inDegrees=yes

Units are S.I. units (second, meters, Newtons, ...)
Angles are in degrees

endheader
time	SC_y	SC_z	SC_x	AC_y	AC_z	AC_x	GH_y	GH_z	GH_yy	EL_x	PS_y
       0.0              -33.17          9.519          36.46          51.89         -17.82          17.65         -81.35         -17.66          25.85          47.02          64.64
  0.008415              -33.17          9.522          36.46          51.89         -17.82          17.65         -81.35         -17.64          25.84          47.03          64.63
   0.01683              -33.17          9.525          36.46           51.9         -17.82          17.65         -81.34         -17.63          25.82          47.03          64.63
   0.02524              -33.17          9.529          36.46           51.9         -17.82          17.64         -81.34         -17.61           25.8          47.04          64.62
   0.03366              -33.17          9.533          36.46           51.9         -17.82          17.64         -81.33          -17.6          25.79          47.04          64.61
   0.04207              -33.17          9.537          36.46           51.9         -17.82          17.64         -81.33         -17.58          25.77          47.05           64.6
   0.05049              -33.17          9.541          36.45          51.91         -17.82          17.64         -81.32         -17.56          25.75          47.05          64.59
    0.0589              -33.17          9.546          36.45          51.91         -17.82          17.64         -81.32         -17.54          25.73          47.06          64.58
   0.06732              -33.17          9.551          36.45          51.91         -17.82          17.63         -81.31         -17.52           25.7          47.07          64.57
   0.07573              -33.17          9.556          36.45          51.91         -17.82          17.63          -81.3         -17.49          25.68          47.07          64.55
   0.08415              -33.18          9.562          36.44          51.92         -17.82          17.63          -81.3         -17.47          25.65          47.08          64.54
   0.09256              -33.18          9.568          36.44          51.92         -17.82          17.63         -81.29         -17.44          25.62          47.09          64.53
     0.101              -33.18          9.574          36.44          51.93         -17.82          17.62         -81.28         -17.41          25.59           47.1          64.51
    0.1094              -33.18          9.582          36.43          51.93         -17.82          17.62         -81.27         -17.38          25.56          47.11           64.5
    0.1178              -33.18          9.589          36.43          51.93         -17.82          17.62         -81.26         -17.35          25.52          47.12          64.48
    0.1262              -33.18          9.598          36.43          51.94         -17.82          17.61         -81.25         -17.31          25.49          47.13          64.46
    0.1346              -33.18          9.607          36.42          51.94         -17.82          17.61         -81.24         -17.27          25.44          47.15          64.44
     0.143              -33.19          9.617          36.42          51.95         -17.82           17.6         -81.22         -17.22           25.4          47.16          64.41
    0.1515              -33.19          9.628          36.41          51.96         -17.82           17.6         -81.21         -17.17          25.35          47.18          64.39
    0.1599              -33.19           9.64          36.41          51.96         -17.82          17.59         -81.19         -17.12          25.29          47.19          64.36
    0.1683              -33.19          9.653           36.4          51.97         -17.82          17.59         -81.18         -17.06          25.23          47.21          64.33
    0.1767               -33.2          9.667          36.39          51.98         -17.82          17.58         -81.16          -17.0          25.16          47.23           64.3
    0.1851               -33.2          9.683          36.39          51.99         -17.82          17.57         -81.14         -16.93          25.09          47.25          64.26
    0.1935               -33.2            9.7          36.38           52.0         -17.82          17.57         -81.11         -16.85          25.01          47.28          64.22
     0.202              -33.21           9.72          36.37          52.01         -17.82          17.56         -81.09         -16.76          24.92          47.31          64.18
    0.2104              -33.21          9.742          36.36          52.02         -17.83          17.55         -81.06         -16.67          24.82          47.34          64.13
    0.2188              -33.22          9.766          36.34          52.04         -17.83          17.53         -81.03         -16.56          24.71          47.37          64.07
    0.2272              -33.22          9.794          36.33          52.05         -17.83          17.52         -80.99         -16.44          24.58          47.41          64.01
    0.2356              -33.23          9.825          36.32          52.07         -17.83          17.51         -80.95          -16.3          24.44          47.46          63.93
     0.244              -33.23           9.86           36.3          52.09         -17.83          17.49          -80.9         -16.14          24.27          47.51          63.85
    0.2524              -33.24            9.9          36.28          52.12         -17.83          17.47         -80.85         -15.96          24.09          47.56          63.76
    0.2609              -33.25          9.946          36.26          52.14         -17.83          17.45         -80.79         -15.76          23.87          47.63          63.65
    0.2693              -33.26           10.0          36.23          52.17         -17.83          17.43         -80.72         -15.52          23.63           47.7          63.53
    0.2777              -33.27          10.06           36.2          52.21         -17.83           17.4         -80.64         -15.25          23.34          47.79          63.39
    0.2861              -33.29          10.13          36.17          52.25         -17.83          17.37         -80.54         -14.92          23.01           47.9          63.22
    0.2945               -33.3          10.22          36.13           52.3         -17.83          17.33         -80.43         -14.54          22.61          48.02          63.02
    0.3029              -33.32          10.32          36.08          52.36         -17.84          17.28         -80.29         -14.09          22.14          48.16          62.79
    0.3113              -33.34          10.44          36.02          52.43         -17.84          17.23         -80.13         -13.55          21.58          48.33          62.51
    0.3198              -33.37          10.59          35.95          52.52         -17.84          17.16         -79.94          -12.9           20.9          48.54          62.17
    0.3282              -33.41          10.77          35.86          52.62         -17.84          17.08          -79.7          -12.1          20.07           48.8          61.75
    0.3366              -33.45          10.99          35.76          52.75         -17.85          16.97          -79.4         -11.11          19.04          49.11          61.24
     0.345               -33.5          11.27          35.62          52.91         -17.85          16.85         -79.04         -9.882          17.76          49.51           60.6
    0.3534              -33.57          11.62          35.45          53.12         -17.86          16.69         -78.58         -8.333          16.15           50.0          59.79
    0.3618              -33.65          12.06          35.24          53.38         -17.87          16.48         -77.99         -6.363           14.1          50.63          58.77
    0.3702              -33.76          12.63          34.97          53.71         -17.88          16.22         -77.24         -3.841          11.47          51.44          57.46
    0.3787               -33.9          13.36          34.62          54.13         -17.89          15.89         -76.28        -0.6055          8.105          52.48          55.77
    0.3871              -34.08          14.29          34.17          54.68         -17.91          15.46         -75.05          3.528          3.805           53.8          53.62
    0.3955               -34.3          15.45          33.61          55.36         -17.93          14.93          -73.5          8.725         -1.603          55.46          50.92
    0.4039              -34.57          16.88          32.92          56.19         -17.95          14.28         -71.61          15.06         -8.193          57.49          47.63
    0.4123              -34.89          18.53          32.13          57.15         -17.98          13.52         -69.43           22.4         -15.83          59.83          43.81
    0.4207              -35.23          20.32          31.27           58.2         -18.02           12.7         -67.06          30.35          -24.1          62.38          39.68
    0.4291              -35.57          22.11          30.41          59.24         -18.05          11.88          -64.7           38.3         -32.37          64.92          35.54
    0.4376              -35.89          23.76          29.61          60.21         -18.08          11.12         -62.51          45.64         -40.01          67.27          31.72
     0.446              -36.16          25.18          28.93          61.04          -18.1          10.47         -60.63          51.97          -46.6          69.29          28.43
    0.4544              -36.38          26.35          28.36          61.72         -18.13          9.934         -59.08          57.17         -52.01          70.96          25.73
    0.4628              -36.56          27.28          27.92          62.26         -18.14          9.508         -57.85           61.3         -56.31          72.28          23.58
    0.4712               -36.7          28.01          27.57          62.69         -18.16          9.174         -56.88          64.54         -59.68          73.31           21.9
    0.4796              -36.81          28.58          27.29          63.02         -18.17          8.914         -56.13          67.06          -62.3          74.12          20.58
    0.4881              -36.89          29.02          27.08          63.28         -18.17          8.711         -55.55          69.03         -64.35          74.75          19.56
    0.4965              -36.96          29.37          26.91          63.48         -18.18          8.551         -55.09          70.58         -65.97          75.25          18.75
    0.5049              -37.01          29.65          26.78          63.64         -18.19          8.425         -54.72          71.81         -67.25          75.64          18.11
    0.5133              -37.05          29.87          26.67          63.77         -18.19          8.323         -54.43           72.8         -68.27          75.96           17.6
    0.5217              -37.09          30.05          26.59          63.88         -18.19           8.24         -54.19          73.59          -69.1          76.21          17.19
    0.5301              -37.12           30.2          26.51          63.96          -18.2          8.173         -53.99          74.25         -69.78          76.42          16.85
    0.5385              -37.14          30.32          26.46          64.03          -18.2          8.117         -53.83          74.79         -70.35          76.59          16.56
